<?xml version="1.0" standalone="no"?>
<!DOCTYPE svg PUBLIC "-//W3C//DTD SVG 20010904//EN"
 "http://www.w3.org/TR/2001/REC-SVG-20010904/DTD/svg10.dtd">
<svg version="1.0" xmlns="http://www.w3.org/2000/svg"
 width="600.000000pt" height="600.000000pt" viewBox="0 0 600.000000 600.000000"
 preserveAspectRatio="xMidYMid meet">
<metadata>
Created by potrace 1.11, written by Peter Selinger 2001-2013
</metadata>
<g transform="translate(0.000000,600.000000) scale(0.100000,-0.100000)"
fill="#000000" stroke="none">
<path d="M2805 5243 c-316 -36 -539 -100 -801 -228 -478 -233 -866 -644 -1074
-1135 -29 -69 -42 -102 -45 -110 -1 -3 -16 -50 -33 -105 -32 -101 -74 -290
-88 -400 -18 -141 -9 -518 16 -629 4 -23 11 -57 14 -77 3 -20 8 -42 10 -50 3
-8 7 -25 10 -39 9 -51 57 -203 92 -292 259 -661 838 -1176 1523 -1354 101 -26
105 -27 251 -51 144 -23 475 -25 620 -3 159 25 248 45 365 82 55 17 102 32
105 33 24 8 173 72 230 100 81 39 237 130 285 168 6 4 41 31 80 60 272 204
499 483 655 802 61 126 157 375 144 375 -2 0 0 8 5 18 10 19 48 192 57 261 18
139 21 198 19 371 -2 107 -5 206 -8 220 -3 14 -8 43 -11 65 -55 384 -228 782
-477 1089 -77 97 -230 250 -325 327 -305 249 -695 424 -1069 480 -38 5 -83 12
-100 15 -34 7 -405 12 -450 7z m455 -512 c386 -67 693 -220 959 -479 158 -154
265 -303 360 -502 50 -105 114 -283 125 -350 3 -19 8 -46 12 -60 32 -135 40
-467 15 -600 -6 -30 -12 -66 -15 -80 -38 -220 -165 -506 -313 -705 -88 -119
-266 -294 -383 -378 -162 -115 -396 -223 -590 -273 -520 -132 -1072 -16 -1505
315 -78 59 -248 229 -306 306 -164 216 -285 479 -334 726 -22 108 -27 165 -30
309 -4 176 10 312 46 455 11 44 22 87 24 95 15 72 119 300 186 410 107 175
300 381 471 502 87 62 295 175 383 209 91 35 210 70 289 85 12 2 32 6 46 8 14
3 50 8 80 12 30 3 57 7 58 9 9 8 363 -4 422 -14z"/>
</g>
</svg>
